<?xml version="1.0" standalone="no"?>
<!DOCTYPE svg PUBLIC "-//W3C//DTD SVG 20010904//EN" "http://www.w3.org/TR/2001/REC-SVG-20010904/DTD/svg10.dtd">
<!-- Created using Karbon, part of Calligra: http://www.calligra.org/karbon -->
<svg xmlns="http://www.w3.org/2000/svg" xmlns:xlink="http://www.w3.org/1999/xlink" width="68.8pt" height="68.8pt">
<defs>
  <linearGradient id="gradient0" gradientTransform="translate(-0.3, -0.3)" gradientUnits="objectBoundingBox" x1="0.00839461358" y1="0.99863114754" x2="0.99863114754" y2="0.00839461358" spreadMethod="pad">
   <stop stop-color="#ffffff" offset="0.00000000000" stop-opacity="1.00000000000"/>
   <stop stop-color="#25e5da" offset="0.35737493634" stop-opacity="1.00000000000"/>
  </linearGradient>
  <linearGradient id="gradient1" gradientTransform="" gradientUnits="objectBoundingBox" x1="0.50000000000" y1="0.50000000000" x2="0.50000000000" y2="0.00000000000" spreadMethod="pad">
   <stop stop-color="#000000" offset="0.00000000000" stop-opacity="1.00000000000"/>
   <stop stop-color="#ffffff" offset="1.00000000000" stop-opacity="1.00000000000"/>
  </linearGradient>
  <linearGradient id="gradient2" gradientTransform="" gradientUnits="objectBoundingBox" x1="0.50000000000" y1="0.50000000000" x2="0.50000000000" y2="0.00000000000" spreadMethod="pad">
   <stop stop-color="#000000" offset="0.00000000000" stop-opacity="1.00000000000"/>
   <stop stop-color="#ffffff" offset="1.00000000000" stop-opacity="1.00000000000"/>
  </linearGradient>
  <linearGradient id="gradient3" gradientTransform="" gradientUnits="objectBoundingBox" x1="0.50000000000" y1="0.50000000000" x2="0.50000000000" y2="0.00000000000" spreadMethod="pad">
   <stop stop-color="#ffffff" offset="0.00000000000" stop-opacity="1.00000000000"/>
   <stop stop-color="#000000" offset="1.00000000000" stop-opacity="1.00000000000"/>
  </linearGradient>
  <linearGradient id="gradient4" gradientTransform="" gradientUnits="objectBoundingBox" x1="0.50000000000" y1="0.50000000000" x2="0.50000000000" y2="0.00000000000" spreadMethod="pad">
   <stop stop-color="#ffffff" offset="0.00000000000" stop-opacity="1.00000000000"/>
   <stop stop-color="#000000" offset="1.00000000000" stop-opacity="1.00000000000"/>
  </linearGradient>
 </defs>
<g id="Layer_2"/><g id="Layer_1">
  <path id="shape0" transform="translate(0.402798, 0.0897311)" fill="url(#gradient0)" d="M83.977 0L42.7 0C19.117 0 0 19.118 0 42.7L0 83.977C0 84.763 0.637 85.4 1.423 85.4L42.7 85.4C66.283 85.4 85.4 66.282 85.4 42.7L85.4 1.423C85.4 0.637 84.763 0 83.977 0Z"/>
  <ellipse id="shape1" transform="matrix(0.99992 0.0125877 -0.0133496 0.99991 25.6601 25.9584)" rx="6.29437430468pt" ry="6.29929840741pt" cx="6.29437430468pt" cy="6.29929840741pt" fill="url(#gradient1)" fill-rule="evenodd" stroke="#000000" stroke-width="1.25000000000" stroke-linecap="square" stroke-linejoin="miter" stroke-miterlimit="2.00000000000"/>
  <path id="shape2" transform="matrix(0.99992 0.0125877 -0.0133496 0.99991 44.5946 44.5247)" fill="url(#gradient2)" fill-rule="evenodd" stroke="#000000" stroke-width="1.25000000000" stroke-linecap="square" stroke-linejoin="miter" stroke-miterlimit="2.00000000000" d="M15.7359 7.87412C15.7359 3.52536 12.2133 2.66285e-16 7.86797 0C3.52261 -2.66285e-16 5.32153e-16 3.52536 0 7.87412C-5.32153e-16 12.2229 3.52261 15.7482 7.86797 15.7482C12.2133 15.7482 15.7359 12.2229 15.7359 7.87412"/>
  <path id="shape3" transform="matrix(0.99992 0.0125877 -0.0133496 0.99991 44.497 26.2578)" fill="url(#gradient3)" fill-rule="evenodd" stroke="#000000" stroke-width="1.25000000000" stroke-linecap="square" stroke-linejoin="miter" stroke-miterlimit="2.00000000000" d="M15.7359 7.87412C15.7359 3.52536 12.2133 2.66285e-16 7.86797 0C3.52261 -2.66285e-16 5.32153e-16 3.52536 0 7.87412C-5.32153e-16 12.2229 3.52261 15.7482 7.86797 15.7482C12.2133 15.7482 15.7359 12.2229 15.7359 7.87412"/>
  <path id="shape4" transform="matrix(0.99992 0.0125877 -0.0133496 0.99991 25.5625 44.1254)" fill="url(#gradient4)" fill-rule="evenodd" stroke="#000000" stroke-width="1.25000000000" stroke-linecap="square" stroke-linejoin="miter" stroke-miterlimit="2.00000000000" d="M15.7359 7.87412C15.7359 3.52536 12.2133 2.66285e-16 7.86797 0C3.52261 -2.66285e-16 5.32153e-16 3.52536 0 7.87412C-5.32153e-16 12.2229 3.52261 15.7482 7.86797 15.7482C12.2133 15.7482 15.7359 12.2229 15.7359 7.87412"/>
 </g>
</svg>
